<?xml version="1.0" encoding="UTF-8" standalone="no"?>
<!-- Created with Inkscape (http://www.inkscape.org/) -->

<svg
   xmlns:dc="http://purl.org/dc/elements/1.1/"
   xmlns:cc="http://creativecommons.org/ns#"
   xmlns:rdf="http://www.w3.org/1999/02/22-rdf-syntax-ns#"
   xmlns:svg="http://www.w3.org/2000/svg"
   xmlns="http://www.w3.org/2000/svg"
   xmlns:sodipodi="http://sodipodi.sourceforge.net/DTD/sodipodi-0.dtd"
   xmlns:inkscape="http://www.inkscape.org/namespaces/inkscape"
   width="256"
   height="120"
   viewBox="0 0 67.733332 31.750001"
   version="1.1"
   id="svg6713"
   inkscape:version="0.92.4 (unknown)"
   sodipodi:docname="logo.svg">
  <defs
     id="defs6707" />
  <sodipodi:namedview
     id="base"
     pagecolor="#ffffff"
     bordercolor="#666666"
     borderopacity="1.0"
     inkscape:pageopacity="0.0"
     inkscape:pageshadow="2"
     inkscape:zoom="3.3504708"
     inkscape:cx="101.30265"
     inkscape:cy="70.163444"
     inkscape:document-units="px"
     inkscape:current-layer="layer1"
     showgrid="false"
     units="px"
     inkscape:window-width="2560"
     inkscape:window-height="1386"
     inkscape:window-x="0"
     inkscape:window-y="27"
     inkscape:window-maximized="1" />
  <metadata
     id="metadata6710">
    <rdf:RDF>
      <cc:Work
         rdf:about="">
        <dc:format>image/svg+xml</dc:format>
        <dc:type
           rdf:resource="http://purl.org/dc/dcmitype/StillImage" />
        <dc:title />
      </cc:Work>
    </rdf:RDF>
  </metadata>
  <g
     inkscape:label="Calque 1"
     inkscape:groupmode="layer"
     id="layer1"
     transform="translate(0,-265.24999)">
    <rect
       style="opacity:1;vector-effect:none;fill:#3726bc;fill-opacity:1;stroke:none;stroke-width:0.53371435;stroke-linecap:round;stroke-linejoin:round;stroke-miterlimit:4;stroke-dasharray:none;stroke-dashoffset:0;stroke-opacity:1;paint-order:stroke markers fill"
       id="rect6550"
       width="50.594994"
       height="14.719344"
       x="-8.2972947e-05"
       y="265.24683" />
    <g
       aria-label="PISTEUR"
       transform="matrix(0.38735116,0,0,0.38735116,-3063.9478,-3356.0991)"
       style="font-style:normal;font-variant:normal;font-weight:bold;font-stretch:normal;font-size:18px;line-height:0;font-family:Lato;-inkscape-font-specification:'Lato Bold';font-variant-ligatures:normal;font-variant-position:normal;font-variant-caps:normal;font-variant-numeric:normal;font-variant-alternates:normal;font-feature-settings:normal;text-indent:0;text-align:start;text-decoration:none;text-decoration-line:none;text-decoration-style:solid;text-decoration-color:#000000;letter-spacing:4px;word-spacing:0px;text-transform:none;writing-mode:lr-tb;direction:ltr;text-orientation:mixed;dominant-baseline:auto;baseline-shift:baseline;text-anchor:start;white-space:normal;shape-padding:0;opacity:1;vector-effect:none;fill:#ffffff;fill-opacity:1;stroke:none;stroke-width:1.61610448;stroke-linecap:round;stroke-linejoin:round;stroke-miterlimit:4;stroke-dasharray:none;stroke-dashoffset:0;stroke-opacity:1;paint-order:stroke markers fill"
       id="flowRoot6558">
      <path
         d="m 7927.942,9374.812 h -2.484 v -12.762 h 4.77 q 1.242,0 2.196,0.522 0.954,0.504 1.476,1.404 0.522,0.9 0.522,2.052 0,1.152 -0.522,2.07 -0.522,0.9 -1.476,1.404 -0.954,0.504 -2.196,0.504 h -2.286 z m 1.98,-6.948 q 0.918,0 1.458,-0.486 0.54,-0.504 0.54,-1.332 0,-0.864 -0.54,-1.35 -0.522,-0.486 -1.458,-0.486 h -1.962 v 3.654 z"
         style="font-style:normal;font-variant:normal;font-weight:bold;font-stretch:normal;line-height:1.25;font-family:CircularAirPro;-inkscape-font-specification:'CircularAirPro Bold';fill:#ffffff;fill-opacity:1;stroke-width:1.61610448"
         id="path4783" />
      <path
         d="m 7940.3564,9362.05 h 2.52 v 12.762 h -2.52 z"
         style="font-style:normal;font-variant:normal;font-weight:bold;font-stretch:normal;line-height:1.25;font-family:CircularAirPro;-inkscape-font-specification:'CircularAirPro Bold';fill:#ffffff;fill-opacity:1;stroke-width:1.61610448"
         id="path4785" />
      <path
         d="m 7956.1597,9365.776 q -0.144,-0.72 -0.684,-1.26 -0.54,-0.54 -1.638,-0.54 -0.882,0 -1.44,0.486 -0.558,0.468 -0.558,1.134 0,0.54 0.342,0.918 0.36,0.378 1.044,0.522 l 1.782,0.342 q 1.692,0.324 2.628,1.368 0.936,1.026 0.936,2.394 0,1.008 -0.558,1.926 -0.54,0.9 -1.584,1.458 -1.044,0.558 -2.466,0.558 -1.602,0 -2.718,-0.594 -1.098,-0.594 -1.674,-1.494 -0.576,-0.918 -0.684,-1.908 l 2.304,-0.612 q 0.072,1.008 0.792,1.71 0.72,0.684 1.998,0.684 0.99,0 1.53,-0.432 0.54,-0.432 0.54,-1.134 0,-0.558 -0.414,-0.954 -0.396,-0.414 -1.134,-0.558 l -1.782,-0.36 q -1.548,-0.324 -2.448,-1.26 -0.9,-0.954 -0.9,-2.394 0,-1.098 0.594,-2.016 0.612,-0.918 1.638,-1.44 1.026,-0.54 2.214,-0.54 2.088,0 3.186,1.008 1.116,0.99 1.386,2.304 z"
         style="font-style:normal;font-variant:normal;font-weight:bold;font-stretch:normal;line-height:1.25;font-family:CircularAirPro;-inkscape-font-specification:'CircularAirPro Bold';fill:#ffffff;fill-opacity:1;stroke-width:1.61610448"
         id="path4787" />
      <path
         d="m 7969.9978,9374.812 h -2.502 v -10.404 h -4.032 v -2.358 h 10.566 v 2.358 h -4.032 z"
         style="font-style:normal;font-variant:normal;font-weight:bold;font-stretch:normal;line-height:1.25;font-family:CircularAirPro;-inkscape-font-specification:'CircularAirPro Bold';fill:#ffffff;fill-opacity:1;stroke-width:1.61610448"
         id="path4789" />
      <path
         d="m 7979.7783,9362.05 h 7.992 v 2.34 h -5.508 v 2.916 h 4.986 v 2.214 h -4.986 v 2.952 h 5.508 v 2.34 h -7.992 z"
         style="font-style:normal;font-variant:normal;font-weight:bold;font-stretch:normal;line-height:1.25;font-family:CircularAirPro;-inkscape-font-specification:'CircularAirPro Bold';fill:#ffffff;fill-opacity:1;stroke-width:1.61610448"
         id="path4791" />
      <path
         d="m 7999.0249,9375.1 q -1.386,0 -2.502,-0.558 -1.098,-0.558 -1.746,-1.638 -0.648,-1.098 -0.648,-2.61 v -8.244 h 2.484 v 8.064 q 0,1.242 0.63,1.908 0.648,0.648 1.782,0.648 1.152,0 1.782,-0.648 0.648,-0.666 0.648,-1.908 v -8.064 h 2.484 v 8.244 q 0,1.512 -0.648,2.61 -0.648,1.08 -1.764,1.638 -1.116,0.558 -2.502,0.558 z"
         style="font-style:normal;font-variant:normal;font-weight:bold;font-stretch:normal;line-height:1.25;font-family:CircularAirPro;-inkscape-font-specification:'CircularAirPro Bold';fill:#ffffff;fill-opacity:1;stroke-width:1.61610448"
         id="path4793" />
      <path
         d="m 8013.2373,9369.898 v 4.914 h -2.502 v -12.762 h 4.986 q 1.206,0 2.124,0.522 0.936,0.504 1.44,1.404 0.504,0.9 0.504,1.998 0,1.332 -0.738,2.304 -0.72,0.954 -1.98,1.314 l 2.736,5.22 h -2.772 l -2.502,-4.914 z m 2.016,-2.142 q 0.954,0 1.476,-0.468 0.522,-0.486 0.522,-1.296 0,-0.828 -0.522,-1.296 -0.522,-0.486 -1.476,-0.486 h -2.016 v 3.546 z"
         style="font-style:normal;font-variant:normal;font-weight:bold;font-stretch:normal;line-height:1.25;font-family:CircularAirPro;-inkscape-font-specification:'CircularAirPro Bold';fill:#ffffff;fill-opacity:1;stroke-width:1.61610448"
         id="path4795" />
    </g>
    <rect
       y="279.96552"
       x="21.116108"
       height="14.719344"
       width="39.824253"
       id="rect6562"
       style="opacity:1;vector-effect:none;fill:#dc3545;fill-opacity:1;stroke:none;stroke-width:0.48693061;stroke-linecap:round;stroke-linejoin:round;stroke-miterlimit:4;stroke-dasharray:none;stroke-dashoffset:0;stroke-opacity:1;paint-order:stroke markers fill" />
    <g
       aria-label="TEMPS"
       transform="matrix(0.38735116,0,0,0.38735116,-3042.8315,-3341.3797)"
       style="font-style:normal;font-variant:normal;font-weight:bold;font-stretch:normal;font-size:18px;line-height:0;font-family:Lato;-inkscape-font-specification:'Lato Bold';font-variant-ligatures:normal;font-variant-position:normal;font-variant-caps:normal;font-variant-numeric:normal;font-variant-alternates:normal;font-feature-settings:normal;text-indent:0;text-align:start;text-decoration:none;text-decoration-line:none;text-decoration-style:solid;text-decoration-color:#000000;letter-spacing:4px;word-spacing:0px;text-transform:none;writing-mode:lr-tb;direction:ltr;text-orientation:mixed;dominant-baseline:auto;baseline-shift:baseline;text-anchor:start;white-space:normal;shape-padding:0;opacity:1;vector-effect:none;fill:#ffffff;fill-opacity:1;stroke:none;stroke-width:1.61610448;stroke-linecap:round;stroke-linejoin:round;stroke-miterlimit:4;stroke-dasharray:none;stroke-dashoffset:0;stroke-opacity:1;paint-order:stroke markers fill"
       id="flowRoot6570">
      <path
         d="m 7930.822,9374.812 h -2.502 v -10.404 h -4.032 v -2.358 h 10.566 v 2.358 h -4.032 z"
         style="font-style:normal;font-variant:normal;font-weight:bold;font-stretch:normal;line-height:1.25;font-family:CircularAirPro;-inkscape-font-specification:'CircularAirPro Bold';fill:#ffffff;fill-opacity:1;stroke-width:1.61610448"
         id="path4798" />
      <path
         d="m 7940.6025,9362.05 h 7.992 v 2.34 h -5.508 v 2.916 h 4.986 v 2.214 h -4.986 v 2.952 h 5.508 v 2.34 h -7.992 z"
         style="font-style:normal;font-variant:normal;font-weight:bold;font-stretch:normal;line-height:1.25;font-family:CircularAirPro;-inkscape-font-specification:'CircularAirPro Bold';fill:#ffffff;fill-opacity:1;stroke-width:1.61610448"
         id="path4800" />
      <path
         d="m 7966.8691,9365.866 -3.672,8.946 h -2.07 l -3.672,-8.874 v 8.874 h -2.376 v -12.762 h 3.276 l 3.834,9.216 3.744,-9.216 h 3.384 v 12.762 h -2.448 z"
         style="font-style:normal;font-variant:normal;font-weight:bold;font-stretch:normal;line-height:1.25;font-family:CircularAirPro;-inkscape-font-specification:'CircularAirPro Bold';fill:#ffffff;fill-opacity:1;stroke-width:1.61610448"
         id="path4802" />
      <path
         d="m 7978.7193,9374.812 h -2.484 v -12.762 h 4.77 q 1.242,0 2.196,0.522 0.954,0.504 1.476,1.404 0.522,0.9 0.522,2.052 0,1.152 -0.522,2.07 -0.522,0.9 -1.476,1.404 -0.954,0.504 -2.196,0.504 h -2.286 z m 1.98,-6.948 q 0.918,0 1.458,-0.486 0.54,-0.504 0.54,-1.332 0,-0.864 -0.54,-1.35 -0.522,-0.486 -1.458,-0.486 h -1.962 v 3.654 z"
         style="font-style:normal;font-variant:normal;font-weight:bold;font-stretch:normal;line-height:1.25;font-family:CircularAirPro;-inkscape-font-specification:'CircularAirPro Bold';fill:#ffffff;fill-opacity:1;stroke-width:1.61610448"
         id="path4804" />
      <path
         d="m 7997.4526,9365.776 q -0.144,-0.72 -0.684,-1.26 -0.54,-0.54 -1.638,-0.54 -0.882,0 -1.44,0.486 -0.558,0.468 -0.558,1.134 0,0.54 0.342,0.918 0.36,0.378 1.044,0.522 l 1.782,0.342 q 1.692,0.324 2.628,1.368 0.936,1.026 0.936,2.394 0,1.008 -0.558,1.926 -0.54,0.9 -1.584,1.458 -1.044,0.558 -2.466,0.558 -1.602,0 -2.718,-0.594 -1.098,-0.594 -1.674,-1.494 -0.576,-0.918 -0.684,-1.908 l 2.304,-0.612 q 0.072,1.008 0.792,1.71 0.72,0.684 1.998,0.684 0.99,0 1.53,-0.432 0.54,-0.432 0.54,-1.134 0,-0.558 -0.414,-0.954 -0.396,-0.414 -1.134,-0.558 l -1.782,-0.36 q -1.548,-0.324 -2.448,-1.26 -0.9,-0.954 -0.9,-2.394 0,-1.098 0.594,-2.016 0.612,-0.918 1.638,-1.44 1.026,-0.54 2.214,-0.54 2.088,0 3.186,1.008 1.116,0.99 1.386,2.304 z"
         style="font-style:normal;font-variant:normal;font-weight:bold;font-stretch:normal;line-height:1.25;font-family:CircularAirPro;-inkscape-font-specification:'CircularAirPro Bold';fill:#ffffff;fill-opacity:1;stroke-width:1.61610448"
         id="path4806" />
    </g>
    <rect
       style="opacity:1;vector-effect:none;fill:#ffc107;fill-opacity:1;stroke:none;stroke-width:0.40577549;stroke-linecap:round;stroke-linejoin:round;stroke-miterlimit:4;stroke-dasharray:none;stroke-dashoffset:0;stroke-opacity:1;paint-order:stroke markers fill"
       id="rect6572"
       width="21.393469"
       height="14.719344"
       x="-8.2972947e-05"
       y="279.96552" />
    <g
       aria-label="DE"
       transform="matrix(0.38735116,0,0,0.38735116,-3063.9478,-3341.3797)"
       style="font-style:normal;font-variant:normal;font-weight:bold;font-stretch:normal;font-size:18px;line-height:0;font-family:Lato;-inkscape-font-specification:'Lato Bold';font-variant-ligatures:normal;font-variant-position:normal;font-variant-caps:normal;font-variant-numeric:normal;font-variant-alternates:normal;font-feature-settings:normal;text-indent:0;text-align:start;text-decoration:none;text-decoration-line:none;text-decoration-style:solid;text-decoration-color:#000000;letter-spacing:4px;word-spacing:0px;text-transform:none;writing-mode:lr-tb;direction:ltr;text-orientation:mixed;dominant-baseline:auto;baseline-shift:baseline;text-anchor:start;white-space:normal;shape-padding:0;opacity:1;vector-effect:none;fill:#3726bc;fill-opacity:1;stroke:none;stroke-width:1.61610448;stroke-linecap:round;stroke-linejoin:round;stroke-miterlimit:4;stroke-dasharray:none;stroke-dashoffset:0;stroke-opacity:1;paint-order:stroke markers fill"
       id="flowRoot6580">
      <path
         d="m 7925.458,9362.05 h 4.572 q 1.818,0 3.24,0.774 1.44,0.756 2.25,2.196 0.81,1.44 0.81,3.42 0,1.98 -0.81,3.42 -0.81,1.44 -2.25,2.196 -1.422,0.756 -3.258,0.756 h -4.554 z m 4.464,10.458 q 1.08,0 1.944,-0.45 0.864,-0.45 1.368,-1.35 0.522,-0.918 0.522,-2.268 0,-1.332 -0.504,-2.25 -0.504,-0.918 -1.368,-1.368 -0.864,-0.468 -1.944,-0.468 h -1.998 v 8.154 z"
         style="font-style:normal;font-variant:normal;font-weight:bold;font-stretch:normal;line-height:1.25;font-family:CircularAirPro;-inkscape-font-specification:'CircularAirPro Bold';fill:#3726bc;fill-opacity:1;stroke-width:1.61610448"
         id="path4778" />
      <path
         d="m 7942.501,9362.05 h 7.992 v 2.34 h -5.508 v 2.916 h 4.986 v 2.214 h -4.986 v 2.952 h 5.508 v 2.34 h -7.992 z"
         style="font-style:normal;font-variant:normal;font-weight:bold;font-stretch:normal;line-height:1.25;font-family:CircularAirPro;-inkscape-font-specification:'CircularAirPro Bold';fill:#3726bc;fill-opacity:1;stroke-width:1.61610448"
         id="path4780" />
    </g>
  </g>
</svg>
